<svg width="32" height="32" viewBox="0 0 32 32" fill="none" xmlns="http://www.w3.org/2000/svg">
<path d="M29.913 4L2.08696 4C0.934362 4 0 4.9481 0 6.11765L0 25.8824C0 27.0519 0.934362 28 2.08696 28L29.913 28C31.0656 28 32 27.0519 32 25.8824V6.11765C32 4.9481 31.0656 4 29.913 4Z" fill="#1A1876"/>
<path d="M12.6875 19.1655H14.5025L15.6385 12.5039H13.8228L12.6875 19.1655Z" fill="white"/>
<path d="M19.2999 15.1787C18.6655 14.8705 18.2766 14.6646 18.2808 14.3529C18.2808 14.0747 18.6098 13.7797 19.3243 13.7797C19.8507 13.7665 20.3725 13.8803 20.8456 14.1115L21.0919 12.668C20.57 12.4798 20.0189 12.3856 19.4641 12.3898C17.67 12.3898 16.4032 13.2941 16.3956 14.588C16.3858 15.5453 17.2999 16.0795 17.9865 16.3967C18.6933 16.723 18.9312 16.931 18.9277 17.2225C18.9229 17.6691 18.3636 17.8736 17.8411 17.8736C17.1653 17.8894 16.4965 17.7326 15.8982 17.418L15.6436 18.9087C16.2908 19.1479 16.9758 19.2683 17.6658 19.2642C19.5747 19.2642 20.8136 18.371 20.8276 16.9887C20.831 16.2305 20.3476 15.6538 19.2999 15.1787Z" fill="white"/>
<path d="M25.7443 12.5103H24.3412C24.144 12.485 23.944 12.5254 23.7721 12.6253C23.6002 12.7251 23.466 12.8788 23.3902 13.0626L20.6938 19.1656H22.6006C22.6006 19.1656 22.9123 18.3447 22.9825 18.1645H25.3081C25.3624 18.3983 25.5293 19.1628 25.5293 19.1628H27.2142L25.7443 12.5103ZM23.5057 16.8045C23.5808 16.6118 24.3217 14.7092 24.4698 14.3064C24.7147 15.4543 24.4761 14.3405 25.0125 16.8045H23.5057Z" fill="white"/>
<path d="M11.1646 12.5083L9.38648 17.0509L9.19726 16.1278L8.56074 13.0669C8.51435 12.8896 8.40545 12.735 8.25411 12.6316C8.10276 12.5282 7.91916 12.4829 7.73709 12.5041H4.80909L4.78613 12.6433C5.45187 12.8003 6.09345 13.0463 6.69361 13.3744L8.30752 19.1601H10.2289L13.0873 12.5111L11.1646 12.5083Z" fill="white"/>
</svg>
