<svg width="32" height="32" viewBox="0 0 32 32" fill="none" xmlns="http://www.w3.org/2000/svg">
<path d="M29.913 4L2.08696 4C0.934261 4 0 4.948 0 6.11765L0 25.8824C0 27.052 0.934261 28 2.08696 28L29.913 28C31.0657 28 32 27.052 32 25.8824V6.11765C32 4.948 31.0657 4 29.913 4Z" fill="#011E72"/>
<path d="M13.9131 13.1426V18.5102C15.1103 18.1993 16 17.1189 16 15.8264C16 14.5339 15.1103 13.4535 13.9131 13.1426Z" fill="white"/>
<path d="M18.7828 10.2607H13.2176C10.1442 10.2607 7.65234 12.7526 7.65234 15.826C7.65234 18.8994 10.1442 21.3912 13.2176 21.3912H18.7828C21.8562 21.3912 24.348 18.8994 24.348 15.826C24.348 12.7526 21.8562 10.2607 18.7828 10.2607ZM13.2176 19.9999C10.9156 19.9999 9.04365 18.1279 9.04365 15.826C9.04365 13.524 10.9156 11.652 13.2176 11.652C15.5195 11.652 17.3915 13.524 17.3915 15.826C17.3915 18.1279 15.5195 19.9999 13.2176 19.9999Z" fill="white"/>
<path d="M12.5215 13.1426C11.3243 13.4535 10.4346 14.5339 10.4346 15.8264C10.4346 17.1189 11.3243 18.1993 12.5215 18.5102V13.1426Z" fill="white"/>
</svg>
