<svg width="32" height="32" viewBox="0 0 32 32" fill="none" xmlns="http://www.w3.org/2000/svg">
<path d="M29.913 4L2.08696 4C0.934362 4 0 4.9481 0 6.11765L0 25.8824C0 27.0519 0.934362 28 2.08696 28L29.913 28C31.0656 28 32 27.0519 32 25.8824V6.11765C32 4.9481 31.0656 4 29.913 4Z" fill="#F2F2F2"/>
<path d="M5.81727 24.8561V23.1295C5.82607 22.9843 5.8077 22.8386 5.76337 22.7021C5.71905 22.5657 5.64979 22.4416 5.5602 22.3381C5.47062 22.2346 5.36278 22.1542 5.24385 22.1021C5.12492 22.05 4.99765 22.0274 4.8705 22.036C4.70408 22.0235 4.53777 22.0623 4.38895 22.1484C4.24013 22.2344 4.11426 22.3646 4.02446 22.5252C3.94261 22.3694 3.82549 22.2417 3.68545 22.1556C3.54541 22.0695 3.38765 22.0282 3.22878 22.036C3.09029 22.028 2.95238 22.0615 2.82871 22.1331C2.70505 22.2048 2.59992 22.3122 2.52374 22.4446V22.105H2V24.8561H2.52878V23.3424C2.51753 23.2484 2.52461 23.1526 2.5495 23.062C2.5744 22.9714 2.61649 22.8883 2.67279 22.8184C2.72908 22.7486 2.79818 22.6938 2.87514 22.6581C2.9521 22.6223 3.03502 22.6064 3.11799 22.6115C3.46547 22.6115 3.64173 22.8705 3.64173 23.3367V24.8676H4.1705V23.3424C4.15972 23.2485 4.16712 23.1529 4.19218 23.0626C4.21724 22.9722 4.25936 22.8892 4.31556 22.8195C4.37176 22.7498 4.44066 22.695 4.51741 22.6591C4.59415 22.6232 4.67687 22.6069 4.75971 22.6115C5.11727 22.6115 5.28849 22.8705 5.28849 23.3367V24.8676L5.81727 24.8561ZM13.6406 22.105H12.7795V21.2705H12.2507V22.105H11.7723V22.6518H12.2608V23.918C12.2608 24.5568 12.4773 24.9367 13.0968 24.9367C13.3282 24.9376 13.5551 24.8638 13.7514 24.7237L13.6004 24.2115C13.4599 24.3073 13.3005 24.3607 13.137 24.3669C12.8853 24.3669 12.7896 24.1827 12.7896 23.9065V22.6518H13.6457L13.6406 22.105ZM18.1076 22.036C17.9799 22.0317 17.8535 22.0668 17.7418 22.1377C17.6302 22.2086 17.5373 22.3127 17.473 22.4388V22.105H16.9543V24.8561H17.4781V23.3137C17.4781 22.859 17.6493 22.6058 17.9817 22.6058C18.0937 22.604 18.2049 22.6275 18.309 22.6748L18.4701 22.0993C18.3505 22.0504 18.2245 22.0251 18.0975 22.0245L18.1076 22.036ZM11.3543 22.3237C11.0579 22.1223 10.717 22.0224 10.3723 22.036C9.76295 22.036 9.36511 22.3698 9.36511 22.9165C9.36511 23.3655 9.65719 23.6417 10.196 23.7281L10.4478 23.7683C10.7349 23.8144 10.8709 23.9007 10.8709 24.0561C10.8709 24.2691 10.6795 24.3899 10.3219 24.3899C10.0343 24.3994 9.7523 24.2981 9.52122 24.1022L9.26942 24.5683C9.57451 24.8118 9.93992 24.9369 10.3119 24.9252C11.0068 24.9252 11.4097 24.5511 11.4097 24.0273C11.4097 23.5036 11.0924 23.2906 10.5687 23.2043L10.3169 23.164C10.0903 23.1295 9.90899 23.0777 9.90899 22.8935C9.90899 22.7094 10.0802 22.5712 10.3673 22.5712C10.6326 22.5747 10.8927 22.656 11.1227 22.8072L11.3543 22.3237ZM25.382 22.036C25.2543 22.0317 25.128 22.0668 25.0163 22.1377C24.9046 22.2086 24.8118 22.3127 24.7475 22.4388V22.105H24.2288V24.8561H24.7525V23.3137C24.7525 22.859 24.9237 22.6058 25.2561 22.6058C25.3681 22.604 25.4794 22.6275 25.5835 22.6748L25.7446 22.0993C25.625 22.0504 25.499 22.0251 25.3719 22.0245L25.382 22.036ZM18.6338 23.4748C18.6276 23.6681 18.6567 23.8608 18.7194 24.0405C18.7821 24.2203 18.8769 24.383 18.9978 24.5185C19.1186 24.6539 19.2629 24.759 19.4214 24.8271C19.5798 24.8951 19.749 24.9246 19.918 24.9137C20.2325 24.932 20.5415 24.8149 20.7842 24.5856L20.5324 24.1022C20.3513 24.2599 20.1305 24.3467 19.9029 24.3496C19.7093 24.3317 19.5287 24.2312 19.397 24.068C19.2653 23.9049 19.1922 23.691 19.1922 23.4691C19.1922 23.2471 19.2653 23.0333 19.397 22.8701C19.5287 22.7069 19.7093 22.6064 19.9029 22.5885C20.1305 22.5914 20.3513 22.6782 20.5324 22.836L20.7842 22.3525C20.5415 22.1232 20.2325 22.0062 19.918 22.0245C19.749 22.0135 19.5798 22.043 19.4214 22.1111C19.2629 22.1791 19.1186 22.2842 18.9978 22.4197C18.8769 22.5551 18.7821 22.7179 18.7194 22.8976C18.6567 23.0773 18.6276 23.27 18.6338 23.4633V23.4748ZM23.5388 23.4748V22.105H23.0151V22.4388C22.9262 22.3081 22.8113 22.2033 22.6799 22.1333C22.5486 22.0632 22.4046 22.0299 22.2597 22.036C21.9258 22.036 21.6056 22.1876 21.3695 22.4574C21.1334 22.7272 21.0007 23.0932 21.0007 23.4748C21.0007 23.8564 21.1334 24.2224 21.3695 24.4922C21.6056 24.7621 21.9258 24.9137 22.2597 24.9137C22.4046 24.9198 22.5486 24.8864 22.6799 24.8164C22.8113 24.7463 22.9262 24.6416 23.0151 24.5108V24.8446H23.5388V23.4748ZM21.5899 23.4748C21.5983 23.3129 21.6479 23.1573 21.7326 23.0272C21.8174 22.897 21.9336 22.7981 22.0669 22.7425C22.2003 22.6869 22.3449 22.6771 22.4831 22.7142C22.6213 22.7514 22.7469 22.8339 22.8445 22.9517C22.9422 23.0694 23.0076 23.2172 23.0326 23.3769C23.0577 23.5366 23.0413 23.7011 22.9856 23.8503C22.9299 23.9995 22.8372 24.1268 22.7189 24.2165C22.6007 24.3063 22.4621 24.3546 22.3201 24.3554C22.2204 24.3568 22.1216 24.3347 22.0297 24.2903C21.9379 24.246 21.8551 24.1804 21.7865 24.0977C21.7179 24.015 21.665 23.9169 21.6312 23.8097C21.5974 23.7026 21.5833 23.5885 21.5899 23.4748ZM15.2698 22.036C14.9359 22.0413 14.6175 22.198 14.3847 22.4716C14.1519 22.7453 14.0237 23.1134 14.0284 23.495C14.0331 23.8766 14.1702 24.2404 14.4096 24.5065C14.649 24.7725 14.9711 24.919 15.305 24.9137C15.6673 24.9349 16.0236 24.8016 16.3047 24.5396L16.0529 24.0964C15.854 24.2786 15.6077 24.3799 15.3529 24.3842C15.1798 24.4012 15.0076 24.3404 14.8732 24.2146C14.7387 24.0888 14.6524 23.9081 14.6327 23.7108H16.4205C16.4205 23.636 16.4205 23.5612 16.4205 23.4806C16.4205 22.6173 15.9522 22.0417 15.2773 22.0417L15.2698 22.036ZM15.2698 22.5712C15.3482 22.5693 15.4261 22.5851 15.4991 22.6176C15.5722 22.6501 15.6389 22.6988 15.6955 22.7608C15.7521 22.8228 15.7974 22.8969 15.8289 22.9789C15.8604 23.061 15.8775 23.1493 15.8791 23.2388H14.6201C14.6293 23.0541 14.7013 22.8808 14.8208 22.756C14.9404 22.6312 15.0979 22.5649 15.2597 22.5712H15.2698ZM28.391 23.4806V21H27.8874V22.4388C27.7985 22.3081 27.6836 22.2033 27.5522 22.1333C27.4209 22.0632 27.2769 22.0299 27.132 22.036C26.7981 22.036 26.4779 22.1876 26.2418 22.4574C26.0057 22.7272 25.873 23.0932 25.873 23.4748C25.873 23.8564 26.0057 24.2224 26.2418 24.4922C26.4779 24.7621 26.7981 24.9137 27.132 24.9137C27.2769 24.9198 27.4209 24.8864 27.5522 24.8164C27.6836 24.7463 27.7985 24.6416 27.8874 24.5108V24.8446H28.391V23.4806ZM29.2647 24.4561C29.2975 24.4557 29.33 24.4625 29.3604 24.4763C29.3893 24.4897 29.4158 24.5093 29.4385 24.5338C29.4606 24.5586 29.4785 24.5879 29.4914 24.6201C29.5041 24.6537 29.5107 24.69 29.5107 24.7266C29.5107 24.7632 29.5041 24.7995 29.4914 24.8331C29.4785 24.8653 29.4606 24.8946 29.4385 24.9194C29.4158 24.944 29.3893 24.9635 29.3604 24.977C29.3303 24.9922 29.2977 25 29.2647 25C29.217 24.9996 29.1704 24.9837 29.1302 24.9541C29.0901 24.9246 29.0582 24.8826 29.0381 24.8331C29.0255 24.7994 29.019 24.7632 29.019 24.7266C29.019 24.69 29.0255 24.6538 29.0381 24.6201C29.051 24.5879 29.0689 24.5586 29.091 24.5338C29.1137 24.5093 29.1401 24.4897 29.1691 24.4763C29.2019 24.4613 29.237 24.4545 29.2723 24.4561H29.2647ZM29.2647 24.9424C29.2899 24.9426 29.3148 24.9367 29.3378 24.9252C29.3594 24.9141 29.3791 24.8985 29.3957 24.8791C29.4272 24.8399 29.4447 24.7885 29.4447 24.7352C29.4447 24.682 29.4272 24.6306 29.3957 24.5914C29.3791 24.5719 29.3595 24.5563 29.3378 24.5453C29.3147 24.5338 29.2899 24.528 29.2647 24.5281C29.2396 24.5282 29.2148 24.5341 29.1917 24.5453C29.1691 24.5559 29.1486 24.5716 29.1313 24.5914C29.0998 24.6306 29.0823 24.682 29.0823 24.7352C29.0823 24.7885 29.0998 24.8399 29.1313 24.8791C29.1486 24.8989 29.1691 24.9145 29.1917 24.9252C29.2171 24.9377 29.2447 24.9436 29.2723 24.9424H29.2647ZM29.2799 24.6C29.3034 24.5987 29.3265 24.6068 29.3453 24.623C29.353 24.6303 29.3591 24.6396 29.363 24.6501C29.367 24.6606 29.3687 24.672 29.368 24.6835C29.3683 24.693 29.367 24.7026 29.3639 24.7115C29.3609 24.7204 29.3563 24.7285 29.3504 24.7352C29.3358 24.7504 29.3171 24.7595 29.2975 24.7612L29.3705 24.8561H29.3126L29.2446 24.7612H29.2219V24.8561H29.1741V24.6029L29.2799 24.6ZM29.2245 24.6489V24.718H29.2799C29.2897 24.7213 29.3002 24.7213 29.3101 24.718C29.3118 24.714 29.3128 24.7095 29.3128 24.705C29.3128 24.7005 29.3118 24.6961 29.3101 24.6921C29.3118 24.6881 29.3128 24.6836 29.3128 24.6791C29.3128 24.6746 29.3118 24.6702 29.3101 24.6662C29.3002 24.6628 29.2897 24.6628 29.2799 24.6662L29.2245 24.6489ZM26.4547 23.4806C26.463 23.3186 26.5126 23.163 26.5974 23.0329C26.6821 22.9028 26.7983 22.8038 26.9317 22.7482C27.065 22.6926 27.2097 22.6828 27.3479 22.72C27.486 22.7572 27.6117 22.8397 27.7093 22.9574C27.8069 23.0752 27.8723 23.223 27.8974 23.3826C27.9224 23.5423 27.9061 23.7069 27.8504 23.8561C27.7946 24.0053 27.7019 24.1326 27.5837 24.2223C27.4655 24.312 27.3268 24.3603 27.1849 24.3612C27.0852 24.3626 26.9863 24.3404 26.8945 24.2961C26.8026 24.2517 26.7198 24.1861 26.6512 24.1034C26.5826 24.0207 26.5298 23.9227 26.4959 23.8155C26.4621 23.7083 26.4481 23.5943 26.4547 23.4806ZM8.77086 23.4806V22.105H8.24712V22.4388C8.15818 22.3081 8.04329 22.2033 7.91195 22.1333C7.78061 22.0632 7.63657 22.0299 7.49173 22.036C7.15782 22.036 6.83759 22.1876 6.60148 22.4574C6.36538 22.7272 6.23273 23.0932 6.23273 23.4748C6.23273 23.8564 6.36538 24.2224 6.60148 24.4922C6.83759 24.7621 7.15782 24.9137 7.49173 24.9137C7.63657 24.9198 7.78061 24.8864 7.91195 24.8164C8.04329 24.7463 8.15818 24.6416 8.24712 24.5108V24.8446H8.77086V23.4806ZM6.82194 23.4806C6.83029 23.3186 6.8799 23.163 6.96466 23.0329C7.04941 22.9028 7.16562 22.8038 7.29896 22.7482C7.4323 22.6926 7.57696 22.6828 7.71513 22.72C7.85329 22.7572 7.97892 22.8397 8.07656 22.9574C8.1742 23.0752 8.23958 23.223 8.26464 23.3826C8.28971 23.5423 8.27336 23.7069 8.21763 23.8561C8.1619 24.0053 8.0692 24.1326 7.95096 24.2223C7.83272 24.312 7.6941 24.3603 7.55216 24.3612C7.45204 24.3634 7.35261 24.3418 7.26016 24.2978C7.16772 24.2538 7.08429 24.1884 7.01515 24.1056C6.94602 24.0228 6.8927 23.9245 6.85857 23.8169C6.82445 23.7093 6.81026 23.5948 6.81691 23.4806H6.82194Z" fill="#231F20"/>
<path d="M11.7743 19.5486C15.5156 19.5486 18.5486 16.5156 18.5486 12.7743C18.5486 9.03295 15.5156 6 11.7743 6C8.03295 6 5 9.03295 5 12.7743C5 16.5156 8.03295 19.5486 11.7743 19.5486Z" fill="#E61C24"/>
<path d="M20.1859 19.5486C23.9272 19.5486 26.9602 16.5156 26.9602 12.7743C26.9602 9.03295 23.9272 6 20.1859 6C16.4446 6 13.4116 9.03295 13.4116 12.7743C13.4116 16.5156 16.4446 19.5486 20.1859 19.5486Z" fill="#F99F1B"/>
<path d="M15.9799 7.46973C15.1792 8.10269 14.5323 8.90871 14.0875 9.82733C13.6427 10.746 13.4116 11.7534 13.4116 12.774C13.4116 13.7946 13.6427 14.802 14.0875 15.7207C14.5323 16.6393 15.1792 17.4453 15.9799 18.0783C16.7806 17.4453 17.4275 16.6393 17.8723 15.7207C18.3171 14.802 18.5482 13.7946 18.5482 12.774C18.5482 11.7534 18.3171 10.746 17.8723 9.82733C17.4275 8.90871 16.7806 8.10269 15.9799 7.46973Z" fill="#F26622"/>
</svg>
