<svg width="32" height="32" viewBox="0 0 32 32" fill="none" xmlns="http://www.w3.org/2000/svg">
<g clip-path="url(#clip0_614_15677)">
<path fill-rule="evenodd" clip-rule="evenodd" d="M29.6005 4C28.0005 4 11.0606 4 1.60049 4C0.800488 4 0.000488281 4.96 0.000488281 5.92L0.000488281 25.12C0.000488189 27.04 0.800488 28 2.40049 28C11.3251 28 28.0005 28 29.6005 28C31.2005 28 32.0005 27.04 32.0005 25.12V6.88C32.0005 4.96 31.2005 4 29.6005 4Z" fill="#306FC5"/>
<path fill-rule="evenodd" clip-rule="evenodd" d="M2.88571 12.9533L2.26995 11.4179L1.65772 12.9533H2.88571ZM16.4507 12.3419C16.3271 12.4187 16.1809 12.4213 16.0057 12.4213L14.9128 12.4213V11.5658L16.0206 11.5658C16.1774 11.5658 16.3409 11.573 16.4472 11.6352C16.5639 11.6913 16.6361 11.8108 16.6361 11.9757C16.6361 12.1441 16.5674 12.2795 16.4507 12.3419C16.4507 12.3419 16.5674 12.2795 16.4507 12.3419ZM24.2473 12.9533L23.6248 11.4179L23.0056 12.9533H24.2473ZM9.71397 14.6153H8.7917L8.78829 11.5988L7.48378 14.6153H6.69388L5.38597 11.5961L5.38597 14.6153H3.55618L3.2105 13.7562H1.33735L0.98815 14.6153H0.011046L1.62207 10.7637H2.9587L4.48878 14.4104L4.48878 10.7637L5.95711 10.7637L7.13447 13.3765L8.21601 10.7637H9.71385V14.6153H9.71397ZM13.3898 14.6153H10.3844V10.7637H13.3898V11.5658H11.2841V12.26H13.3393V13.0495H11.2841V13.8187H13.3898V14.6153ZM17.6272 11.801C17.6272 12.4151 17.2267 12.7324 16.9933 12.8276C17.1901 12.9043 17.3582 13.0398 17.4383 13.152C17.5653 13.3435 17.5872 13.5147 17.5872 13.8587V14.6153H16.6798L16.6764 14.1296C16.6764 13.8978 16.6981 13.5645 16.5344 13.3792C16.4029 13.2438 16.2026 13.2144 15.8787 13.2144L14.9129 13.2144V14.6153H14.0134V10.7637H16.0826C16.5423 10.7637 16.8811 10.7761 17.1719 10.9482C17.4566 11.1202 17.6272 11.3714 17.6272 11.801C17.6272 11.801 17.6272 11.3714 17.6272 11.801ZM19.0669 14.6153H18.1489V10.7637H19.0669V14.6153ZM29.7164 14.6153H28.4415L26.7363 11.7245V14.6153H24.9041L24.554 13.7562H22.6851L22.3455 14.6153H21.2928C20.8555 14.6153 20.3018 14.5163 19.9883 14.1893C19.6721 13.8623 19.5076 13.4193 19.5076 12.7189C19.5076 12.1477 19.6059 11.6255 19.9926 11.2128C20.2834 10.9054 20.7389 10.7637 21.3588 10.7637H22.2298V11.589H21.3771C21.0488 11.589 20.8634 11.639 20.6848 11.8172C20.5315 11.9793 20.4262 12.2859 20.4262 12.6896C20.4262 13.1023 20.5064 13.3998 20.6736 13.5941C20.8121 13.7466 21.0638 13.7928 21.3006 13.7928H21.7046L22.9726 10.7638H24.3206L25.8437 14.4069V10.7638H27.2135L28.7949 13.4462V10.7638H29.7164V14.6153ZM0.000601806 15.3718H1.53772L1.88431 14.5163H2.66025L3.00593 15.3718H6.03033V14.7178L6.30029 15.3746H7.87033L8.14029 14.708V15.3718L15.6565 15.3718L15.653 13.9675H15.7984C15.9002 13.9711 15.93 13.9808 15.93 14.1528V15.3718H19.8174V15.0449C20.131 15.2168 20.6187 15.3718 21.2604 15.3718H22.8958L23.2458 14.5163H24.0218L24.364 15.3718H27.5156V14.5592L27.9929 15.3718L30.5183 15.3718V10H28.019V10.6344L27.669 10L25.1043 10V10.6344L24.783 10H21.3188C20.7389 10 20.2292 10.0828 19.8174 10.3137V10H17.4268V10.3137C17.1648 10.0757 16.8078 10 16.4108 10H7.677L7.09099 11.3874L6.4892 10L3.73828 10V10.6344L3.43607 10H1.08998L0.000488281 12.554L0.000488281 15.3718H0.000601806ZM32.0005 18.208H30.3609C30.1972 18.208 30.0884 18.2143 29.9968 18.2776C29.9019 18.34 29.8653 18.4326 29.8653 18.5548C29.8653 18.7001 29.9455 18.799 30.0621 18.8417C30.157 18.8756 30.2589 18.8854 30.4088 18.8854L30.8964 18.8988C31.3884 18.9112 31.7168 18.9978 31.917 19.2088C31.9535 19.2382 31.9754 19.2712 32.0005 19.3042V18.208ZM32.0005 20.7479C31.782 21.0749 31.3561 21.2407 30.7796 21.2407H29.0423L29.0423 20.4146H30.7726C30.9443 20.4146 31.0644 20.3915 31.1367 20.3192C31.1993 20.2596 31.2431 20.1731 31.2431 20.0679C31.2431 19.9557 31.1993 19.8666 31.1332 19.8132C31.0679 19.7544 30.9729 19.7277 30.8162 19.7277C29.9715 19.6983 28.9176 19.7544 28.9176 18.5353C28.9176 17.9765 29.2643 17.3883 30.2084 17.3883L32.0004 17.3883V16.6218L30.3354 16.6218C29.833 16.6218 29.468 16.745 29.2095 16.9364V16.6218H26.7468C26.353 16.6218 25.8907 16.7217 25.6721 16.9364V16.6218H21.2744V16.9364C20.9244 16.678 20.3338 16.6218 20.0613 16.6218H17.1605V16.9364C16.8836 16.662 16.2678 16.6218 15.8925 16.6218L12.6461 16.6218L11.9032 17.4445L11.2074 16.6218H6.35785L6.35785 21.9973H11.1161L11.8816 21.1616L12.6027 21.9973L15.5357 22V20.7355H15.8241C16.2132 20.7416 16.6722 20.7256 17.0772 20.5465L17.0772 21.9972H19.4964L19.4964 20.5962H19.6131C19.762 20.5962 19.7766 20.6024 19.7766 20.7548L19.7766 21.9971H27.1258C27.5923 21.9971 28.08 21.8749 28.3501 21.6531V21.9971H30.6812C31.1663 21.9971 31.64 21.9275 32.0005 21.7493V20.7479ZM28.4119 19.2088C28.587 19.3944 28.6809 19.6286 28.6809 20.0251C28.6809 20.8538 28.1749 21.2407 27.2677 21.2407H25.5154L25.5154 20.4146H27.2606C27.4312 20.4146 27.5523 20.3915 27.6281 20.3192C27.69 20.2596 27.7344 20.1731 27.7344 20.0679C27.7344 19.9557 27.6863 19.8666 27.6246 19.8132C27.5558 19.7544 27.4609 19.7277 27.3042 19.7277C26.4629 19.6983 25.4093 19.7544 25.4093 18.5353C25.4093 17.9765 25.7523 17.3883 26.6955 17.3883H28.4991V18.2083L26.8488 18.2083C26.6852 18.2083 26.5788 18.2145 26.4883 18.2778C26.3898 18.3402 26.3532 18.4328 26.3532 18.555C26.3532 18.7004 26.4369 18.7992 26.5501 18.842C26.645 18.8758 26.7469 18.8857 26.9002 18.8857L27.3845 18.899C27.8729 18.9112 28.2081 18.9976 28.4119 19.2088C28.4119 19.2088 28.2081 18.9976 28.4119 19.2088ZM20.294 18.9709C20.1736 19.044 20.0248 19.0503 19.8498 19.0503H18.7569V18.185H19.8646C20.0248 18.185 20.1851 18.1885 20.294 18.2546C20.4106 18.317 20.4803 18.4363 20.4803 18.6012C20.4803 18.766 20.4106 18.8988 20.294 18.9709C20.294 18.9709 20.4106 18.8988 20.294 18.9709ZM20.8373 19.4504C21.0376 19.526 21.2013 19.6616 21.278 19.7738C21.405 19.9619 21.4234 20.1374 21.4271 20.477L21.4271 21.2407H20.5239L20.5239 20.7587C20.5239 20.5269 20.5457 20.1838 20.3784 20.0046C20.247 19.8666 20.0466 19.8336 19.7184 19.8336H18.757L18.757 21.2407H17.853L17.853 17.3882H19.93C20.3855 17.3882 20.7172 17.4088 21.0125 17.57C21.2964 17.7455 21.475 17.986 21.475 18.4255C21.4749 19.0404 21.0741 19.3542 20.8373 19.4504C20.8373 19.4504 21.0741 19.3542 20.8373 19.4504ZM21.9738 17.3882H24.9764V18.1849H22.8697V18.8853H24.925V19.6713H22.8697V20.4378L24.9764 20.4413L24.9764 21.2407H21.9738L21.9738 17.3882ZM15.904 19.1661H14.7414V18.185H15.9144C16.2392 18.185 16.4647 18.3205 16.4647 18.6574C16.4647 18.9906 16.2497 19.1661 15.904 19.1661ZM13.8453 20.8903L12.4641 19.3211L13.8453 17.8017V20.8903ZM10.2783 20.4378H8.06639V19.6713H10.0415V18.8853H8.06639V18.1849H10.3219L11.3059 19.3076L10.2783 20.4378ZM17.4306 18.6574C17.4306 19.7276 16.6503 19.9485 15.8639 19.9485H14.7414V21.2407H12.9928L11.885 19.9654L10.7338 21.2407H7.17023L7.17023 17.3882H10.7886L11.8955 18.651L13.0398 17.3882L15.9144 17.3882C16.6284 17.3882 17.4306 17.5905 17.4306 18.6574C17.4306 18.6574 17.4306 17.5905 17.4306 18.6574Z" fill="white"/>
</g>
<defs>
<clipPath id="clip0_614_15677">
<rect width="32" height="32" fill="white"/>
</clipPath>
</defs>
</svg>
