<svg width="200" height="200" viewBox="0 0 200 200" xmlns="http://www.w3.org/2000/svg">
  <!-- Folha externa -->
  <path d="M100 10 C120 20, 140 40, 150 60 C160 80, 160 100, 150 120 C140 140, 120 160, 100 170 C80 160, 60 140, 50 120 C40 100, 40 80, 50 60 C60 40, 80 20, 100 10 Z" 
        fill="#4CAF50" stroke="#388E3C" stroke-width="2"/>
  <!-- Folha interna -->
  <path d="M100 30 C115 40, 130 60, 135 80 C140 100, 130 120, 115 135 C100 150, 85 135, 70 120 C55 100, 60 80, 70 60 C85 40, 100 30, 100 30 Z" 
        fill="#81C784" stroke="#388E3C" stroke-width="2"/>
  <!-- Centro do alface -->
  <circle cx="100" cy="100" r="20" fill="#66BB6A" stroke="#388E3C" stroke-width="2"/>
</svg>
