<svg width="130" height="40" viewBox="0 0 130 40" fill="none" xmlns="http://www.w3.org/2000/svg">
<path d="M0 6C0 2.68629 2.68629 0 6 0H124C127.314 0 130 2.68629 130 6V34C130 37.3137 127.314 40 124 40H6C2.68629 40 0 37.3137 0 34V6Z" fill="white"/>
<path fill-rule="evenodd" clip-rule="evenodd" d="M25.769 20.5806C25.7908 18.8841 26.6802 17.3171 28.1256 16.4285C27.2096 15.1204 25.7305 14.3208 24.1344 14.2709C22.4552 14.0946 20.8272 15.2757 19.9715 15.2757C19.0992 15.2757 17.7817 14.2884 16.363 14.3176C14.4963 14.3779 12.7982 15.4134 11.8901 17.0454C9.95607 20.3938 11.3987 25.3149 13.2513 28.0215C14.1782 29.3469 15.2615 30.8273 16.6789 30.7748C18.066 30.7173 18.584 29.8903 20.2583 29.8903C21.9171 29.8903 22.4031 30.7748 23.8493 30.7414C25.3377 30.7173 26.2754 29.4102 27.1698 28.0723C27.8358 27.1279 28.3483 26.0842 28.6882 24.9798C26.9205 24.2321 25.7711 22.5 25.769 20.5806Z" fill="#36403B"/>
<path fill-rule="evenodd" clip-rule="evenodd" d="M23.0376 12.4906C23.8491 11.5164 24.2489 10.2642 24.1521 9C22.9123 9.13022 21.767 9.72278 20.9445 10.6596C20.1323 11.5839 19.7209 12.7932 19.8008 14.021C21.0573 14.0339 22.2502 13.4699 23.0376 12.4906Z" fill="#36403B"/>
<path d="M45.607 12.853C45.607 13.171 45.526 13.456 45.364 13.708C45.202 13.954 44.983 14.149 44.707 14.293C44.437 14.431 44.14 14.5 43.816 14.5H40.801V8.11H43.879C44.179 8.11 44.437 8.191 44.653 8.353C44.875 8.509 45.043 8.713 45.157 8.965C45.277 9.211 45.337 9.469 45.337 9.739C45.337 10.057 45.256 10.351 45.094 10.621C44.932 10.891 44.707 11.092 44.419 11.224C44.785 11.332 45.073 11.533 45.283 11.827C45.499 12.121 45.607 12.463 45.607 12.853ZM44.977 12.745C44.977 12.529 44.929 12.331 44.833 12.151C44.737 11.965 44.605 11.815 44.437 11.701C44.275 11.587 44.089 11.53 43.879 11.53H41.431V13.951H43.816C44.032 13.951 44.227 13.894 44.401 13.78C44.575 13.666 44.713 13.519 44.815 13.339C44.923 13.153 44.977 12.955 44.977 12.745ZM41.431 8.659V11.017H43.627C43.837 11.017 44.023 10.963 44.185 10.855C44.347 10.741 44.476 10.594 44.572 10.414C44.668 10.234 44.716 10.042 44.716 9.838C44.716 9.622 44.671 9.427 44.581 9.253C44.491 9.073 44.368 8.929 44.212 8.821C44.056 8.713 43.879 8.659 43.681 8.659H41.431ZM46.4711 13.15C46.4711 12.856 46.5551 12.604 46.7231 12.394C46.8911 12.178 47.1221 12.013 47.4161 11.899C47.7161 11.779 48.0611 11.719 48.4511 11.719C48.6791 11.719 48.9161 11.737 49.1621 11.773C49.4081 11.809 49.6271 11.863 49.8191 11.935V11.539C49.8191 11.143 49.7021 10.828 49.4681 10.594C49.2341 10.36 48.9101 10.243 48.4961 10.243C48.2441 10.243 47.9951 10.291 47.7491 10.387C47.5091 10.477 47.2571 10.612 46.9931 10.792L46.7591 10.36C47.0651 10.15 47.3651 9.994 47.6591 9.892C47.9531 9.784 48.2531 9.73 48.5591 9.73C49.1351 9.73 49.5911 9.895 49.9271 10.225C50.2631 10.555 50.4311 11.011 50.4311 11.593V13.762C50.4311 13.846 50.4491 13.909 50.4851 13.951C50.5211 13.987 50.5781 14.008 50.6561 14.014V14.5C50.5901 14.506 50.5331 14.512 50.4851 14.518C50.4371 14.524 50.4011 14.524 50.3771 14.518C50.2271 14.512 50.1131 14.464 50.0351 14.374C49.9571 14.284 49.9151 14.188 49.9091 14.086L49.9001 13.744C49.6901 14.014 49.4171 14.224 49.0811 14.374C48.7451 14.518 48.4031 14.59 48.0551 14.59C47.7551 14.59 47.4821 14.527 47.2361 14.401C46.9961 14.269 46.8071 14.095 46.6691 13.879C46.5371 13.657 46.4711 13.414 46.4711 13.15ZM49.6121 13.51C49.6781 13.426 49.7291 13.345 49.7651 13.267C49.8011 13.189 49.8191 13.12 49.8191 13.06V12.376C49.6151 12.298 49.4021 12.238 49.1801 12.196C48.9641 12.154 48.7451 12.133 48.5231 12.133C48.0851 12.133 47.7311 12.22 47.4611 12.394C47.1911 12.568 47.0561 12.805 47.0561 13.105C47.0561 13.279 47.1011 13.444 47.1911 13.6C47.2811 13.75 47.4131 13.876 47.5871 13.978C47.7611 14.074 47.9651 14.122 48.1991 14.122C48.4931 14.122 48.7661 14.065 49.0181 13.951C49.2761 13.837 49.4741 13.69 49.6121 13.51ZM51.9334 14.5V9.811H52.5454V14.5H51.9334ZM51.9334 8.83V7.93H52.5454V8.83H51.9334ZM54.2174 9.811L55.5944 11.647L55.6664 11.782L55.7384 11.647L57.1064 9.811H57.7994L56.0174 12.169L57.7994 14.5H57.1064L55.7384 12.673L55.6664 12.547L55.5944 12.673L54.2264 14.5H53.5334L55.3064 12.169L53.5334 9.811H54.2174ZM58.3666 13.15C58.3666 12.856 58.4506 12.604 58.6186 12.394C58.7866 12.178 59.0176 12.013 59.3116 11.899C59.6116 11.779 59.9566 11.719 60.3466 11.719C60.5746 11.719 60.8116 11.737 61.0576 11.773C61.3036 11.809 61.5226 11.863 61.7146 11.935V11.539C61.7146 11.143 61.5976 10.828 61.3636 10.594C61.1296 10.36 60.8056 10.243 60.3916 10.243C60.1396 10.243 59.8906 10.291 59.6446 10.387C59.4046 10.477 59.1526 10.612 58.8886 10.792L58.6546 10.36C58.9606 10.15 59.2606 9.994 59.5546 9.892C59.8486 9.784 60.1486 9.73 60.4546 9.73C61.0306 9.73 61.4866 9.895 61.8226 10.225C62.1586 10.555 62.3266 11.011 62.3266 11.593V13.762C62.3266 13.846 62.3446 13.909 62.3806 13.951C62.4166 13.987 62.4736 14.008 62.5516 14.014V14.5C62.4856 14.506 62.4286 14.512 62.3806 14.518C62.3326 14.524 62.2966 14.524 62.2726 14.518C62.1226 14.512 62.0086 14.464 61.9306 14.374C61.8526 14.284 61.8106 14.188 61.8046 14.086L61.7956 13.744C61.5856 14.014 61.3126 14.224 60.9766 14.374C60.6406 14.518 60.2986 14.59 59.9506 14.59C59.6506 14.59 59.3776 14.527 59.1316 14.401C58.8916 14.269 58.7026 14.095 58.5646 13.879C58.4326 13.657 58.3666 13.414 58.3666 13.15ZM61.5076 13.51C61.5736 13.426 61.6246 13.345 61.6606 13.267C61.6966 13.189 61.7146 13.12 61.7146 13.06V12.376C61.5106 12.298 61.2976 12.238 61.0756 12.196C60.8596 12.154 60.6406 12.133 60.4186 12.133C59.9806 12.133 59.6266 12.22 59.3566 12.394C59.0866 12.568 58.9516 12.805 58.9516 13.105C58.9516 13.279 58.9966 13.444 59.0866 13.6C59.1766 13.75 59.3086 13.876 59.4826 13.978C59.6566 14.074 59.8606 14.122 60.0946 14.122C60.3886 14.122 60.6616 14.065 60.9136 13.951C61.1716 13.837 61.3696 13.69 61.5076 13.51ZM66.1689 10.351C65.7609 10.363 65.4009 10.477 65.0889 10.693C64.7829 10.909 64.5669 11.206 64.4409 11.584V14.5H63.8289V9.811H64.4049V10.936C64.5669 10.606 64.7799 10.339 65.0439 10.135C65.3139 9.931 65.5989 9.817 65.8989 9.793C65.9589 9.787 66.0099 9.784 66.0519 9.784C66.0999 9.784 66.1389 9.787 66.1689 9.793V10.351ZM73.3692 14.5H72.7572V11.881C72.7572 11.329 72.6762 10.927 72.5142 10.675C72.3522 10.417 72.0972 10.288 71.7492 10.288C71.5092 10.288 71.2722 10.348 71.0382 10.468C70.8042 10.582 70.5972 10.741 70.4172 10.945C70.2432 11.143 70.1172 11.371 70.0392 11.629V14.5H69.4272V9.811H69.9852V10.873C70.1112 10.645 70.2762 10.447 70.4802 10.279C70.6842 10.105 70.9152 9.97 71.1732 9.874C71.4312 9.778 71.6982 9.73 71.9742 9.73C72.2322 9.73 72.4512 9.778 72.6312 9.874C72.8112 9.97 72.9552 10.108 73.0632 10.288C73.1712 10.462 73.2492 10.675 73.2972 10.927C73.3452 11.173 73.3692 11.449 73.3692 11.755V14.5ZM74.4763 13.15C74.4763 12.856 74.5603 12.604 74.7283 12.394C74.8963 12.178 75.1273 12.013 75.4213 11.899C75.7213 11.779 76.0663 11.719 76.4563 11.719C76.6843 11.719 76.9213 11.737 77.1673 11.773C77.4133 11.809 77.6323 11.863 77.8243 11.935V11.539C77.8243 11.143 77.7073 10.828 77.4733 10.594C77.2393 10.36 76.9153 10.243 76.5013 10.243C76.2493 10.243 76.0003 10.291 75.7543 10.387C75.5143 10.477 75.2623 10.612 74.9983 10.792L74.7643 10.36C75.0703 10.15 75.3703 9.994 75.6643 9.892C75.9583 9.784 76.2583 9.73 76.5643 9.73C77.1403 9.73 77.5963 9.895 77.9323 10.225C78.2683 10.555 78.4363 11.011 78.4363 11.593V13.762C78.4363 13.846 78.4543 13.909 78.4903 13.951C78.5263 13.987 78.5833 14.008 78.6613 14.014V14.5C78.5953 14.506 78.5383 14.512 78.4903 14.518C78.4423 14.524 78.4063 14.524 78.3823 14.518C78.2323 14.512 78.1183 14.464 78.0403 14.374C77.9623 14.284 77.9203 14.188 77.9143 14.086L77.9053 13.744C77.6953 14.014 77.4223 14.224 77.0863 14.374C76.7503 14.518 76.4083 14.59 76.0603 14.59C75.7603 14.59 75.4873 14.527 75.2413 14.401C75.0013 14.269 74.8123 14.095 74.6743 13.879C74.5423 13.657 74.4763 13.414 74.4763 13.15ZM77.6173 13.51C77.6833 13.426 77.7343 13.345 77.7703 13.267C77.8063 13.189 77.8243 13.12 77.8243 13.06V12.376C77.6203 12.298 77.4073 12.238 77.1853 12.196C76.9693 12.154 76.7503 12.133 76.5283 12.133C76.0903 12.133 75.7363 12.22 75.4663 12.394C75.1963 12.568 75.0613 12.805 75.0613 13.105C75.0613 13.279 75.1063 13.444 75.1963 13.6C75.2863 13.75 75.4183 13.876 75.5923 13.978C75.7663 14.074 75.9703 14.122 76.2043 14.122C76.4983 14.122 76.7713 14.065 77.0233 13.951C77.2813 13.837 77.4793 13.69 77.6173 13.51Z" fill="#848A87"/>
<path d="M56.9199 21.9766C59.2177 21.9766 60.7324 23.793 60.7324 26.5987C60.7324 29.4122 59.2266 31.2198 56.9541 31.2198C55.7795 31.2812 54.6731 30.666 54.1055 29.6358H54.0625V34.1202H52.2041V22.0713H54.0029V23.5772H54.0371C54.6299 22.5534 55.7375 21.9385 56.9199 21.9766ZM66.8847 21.9766C69.1826 21.9766 70.6973 23.793 70.6973 26.5987C70.6973 29.4122 69.1914 31.2198 66.9189 31.2198C65.7443 31.2812 64.6379 30.666 64.0703 29.6358H64.0273V34.1202H62.1689V22.0713H63.9677V23.5772H64.0019C64.5947 22.5534 65.7023 21.9385 66.8847 21.9766ZM80.2266 18.5C82.8506 18.5 84.6494 19.9717 84.71 22.1143H82.834C82.7217 20.875 81.6972 20.127 80.2002 20.127C78.7031 20.127 77.6787 20.8838 77.6787 21.9854C77.6787 22.8633 78.333 23.3799 79.9336 23.7754L81.3017 24.1113C83.8496 24.7138 84.9082 25.7373 84.9082 27.5537C84.9082 29.8769 83.0576 31.332 80.1142 31.332C77.3603 31.332 75.501 29.9111 75.3808 27.665L77.2832 27.6651C77.4209 28.8965 78.6172 29.7051 80.2519 29.7051C81.8184 29.7051 82.9453 28.8965 82.9453 27.7861C82.9453 26.8223 82.2656 26.2451 80.6562 25.8496L79.0469 25.4619C76.7666 24.9111 75.708 23.8447 75.708 22.1143C75.708 19.9717 77.5752 18.5 80.2266 18.5ZM95.9317 21.96C98.5567 21.96 100.227 23.75 100.227 26.5987C100.227 29.4551 98.5655 31.2374 95.9317 31.2374C93.2988 31.2374 91.6377 29.4551 91.6377 26.5987C91.6377 23.7501 93.3155 21.96 95.9317 21.96ZM110.98 21.96C113.485 21.96 115.061 23.6807 115.061 26.4258V27.0625H108.666V27.1749C108.606 27.8489 108.839 28.5161 109.305 29.0067C109.771 29.4974 110.425 29.7642 111.102 29.7393C112.003 29.8238 112.854 29.3059 113.192 28.4659L114.957 28.4659C114.707 30.1094 113.106 31.2374 111.059 31.2374C108.425 31.2374 106.79 29.4727 106.79 26.6416C106.79 23.8018 108.434 21.96 110.98 21.96ZM88.9189 19.9288V22.0713H90.6406V23.543H88.9189V28.5342C88.9189 29.3096 89.2637 29.6709 90.0205 29.6709C90.2249 29.6674 90.429 29.653 90.6318 29.6279V31.0908C90.2916 31.1544 89.9457 31.1832 89.5996 31.1768C87.7666 31.1768 87.0518 30.4883 87.0518 28.7324V23.543H85.7354V22.0713H87.0517V19.9288H88.9189ZM46.5664 18.7071L51.0498 31.1251H49.0107L47.875 27.7686H43.1416L42.0049 31.1251H40L44.4834 18.7071H46.5664ZM105.752 21.9766C105.966 21.9759 106.18 21.9991 106.389 22.0459V23.7842C106.118 23.7016 105.836 23.6637 105.554 23.6719C105.007 23.6498 104.479 23.8675 104.106 24.268C103.734 24.6684 103.555 25.2116 103.617 25.7549V31.125H101.759V22.0713H103.531V23.6123H103.574C103.821 22.6203 104.73 21.9376 105.752 21.9766ZM95.9317 23.4913C94.4258 23.4913 93.5313 24.6534 93.5313 26.5987C93.5313 28.5606 94.4258 29.7051 95.9317 29.7051C97.4375 29.7051 98.333 28.5606 98.333 26.5987C98.333 24.6446 97.4375 23.4913 95.9317 23.4913ZM56.4297 23.5606C55.0098 23.5606 54.0547 24.7911 54.0547 26.5987C54.0547 28.4229 55.0098 29.6446 56.4297 29.6446C57.875 29.6446 58.8223 28.4483 58.8223 26.5987C58.8223 24.7657 57.875 23.5606 56.4297 23.5606ZM66.3945 23.5606C64.9746 23.5606 64.0195 24.7911 64.0195 26.5987C64.0195 28.4229 64.9746 29.6446 66.3945 29.6446C67.8398 29.6446 68.7871 28.4483 68.7871 26.5987C68.7871 24.7657 67.8398 23.5606 66.3945 23.5606ZM45.5342 20.7725H45.4825L43.6318 26.2198H47.3838L45.5342 20.7725ZM110.98 23.4659C110.369 23.4622 109.782 23.7029 109.349 24.1344C108.916 24.5659 108.673 25.1525 108.675 25.7637H113.201C113.235 25.1581 113.014 24.5658 112.593 24.1296C112.171 23.6934 111.587 23.4528 110.98 23.4659Z" fill="#36403B"/>
<path d="M6 1H124V-1H6V1ZM129 6V34H131V6H129ZM124 39H6V41H124V39ZM1 34V6H-1V34H1ZM6 39C3.23858 39 1 36.7614 1 34H-1C-1 37.866 2.13401 41 6 41V39ZM129 34C129 36.7614 126.761 39 124 39V41C127.866 41 131 37.866 131 34H129ZM124 1C126.761 1 129 3.23858 129 6H131C131 2.13401 127.866 -1 124 -1V1ZM6 -1C2.13401 -1 -1 2.13401 -1 6H1C1 3.23858 3.23858 1 6 1V-1Z" fill="#DADEDC"/>
</svg>
